<svg xmlns="http://www.w3.org/2000/svg" viewBox="0 0 2771.76 262.37"><defs><style>.a{fill:#b00;stroke:#9a272d;stroke-miterlimit:10;stroke-width:5px;}</style></defs><path class="a" d="M-491.18,564.85v-2.74h-1.92l-5.46.82-1.92-.82V561h-1.91V559.1h-1.92V523.56h1.92v-1.92h1.91V476.8h-1.91V473h1.91v-3.55h-1.91V467.5h.82v-1.91h-.82v-8.48h1.91v-2.73h-1.91V444h1.91v-4.65h-1.91V394.49h-1.92v-3h-1.91v-1.92h-4.65v1.1h-.82v-1.1h-4.65v1.1h-4.92l-6.29-1.92v1.92h-1.91v3.82h1.91v2.74l12.85.82v3.83l3.83.82v30.08H-509v10.39h-.82v1.91h.82v11.21h-.82v1.64h.82v12.31h-1.91v3.82h-1.91v17.78h-1.92v1.91h-1.64v4.65h-1.91V502h-1.92v12.3l-5.74.82v10.39h-1.64v4.65h-3.83V532h-1.91v3.83h-1.92v2.74H-539v2.73h-1.64v1.91h-3.83V546h1.91v3h-1.91v2.73h-1.92v2.74h-1.91V561l-4.65,1.09-1.91-1.09v-2.74h-1.92V532h1.92v-5.74H-553v-1.64h1.92v-6.56h1.91v-1.92h1.91v-4.64l7.39-1.92V460.94h1.91v-3H-536V432.78l-3.82-.82V401.88h-.82v-.82h.82v-4.93l8.47-2.73v-1.91l-10.39-.82v-1.92h-1.91l-2.74.82v1.1h-.82v-1.1h-1.91v-2.73h-1.91v-1.92H-553v-3.55l-3.83-1.09v-5.47l14.22-1.1,5.47,1.1,22.42-1.92,7.66.82,3.83-.82,7.38.82,3.83-.82,9.29.82,1.92-.82,1.91.82,4.65-.82v-5.74l11.21-2.73v-2.74h3.83v-3l4.65-.82v3.83h1.64v1.92H-451v1.64h3.83v1.91h1.92v4.65h4.64v-6.56h1.92v-6.57l15.86-.82v2.74h1.91v1.91H-419l3.55-.82,1.91.82v1.92l16.14.82V363.6h1.64v-3h1.91v-5.47h0v-7.66h-1.91v-2.73h1.91V334.34h-1.91V325l-5.47-.82v-3h-1.92V313l9.3-1.91v-3h3v3l18.59,2.73v1.91l5.75.82v1.92l5.46,1.91v3.83h1.92v9.3h.82v.82H-361v3.83h-3.82V342h-1.64v2.74h-1.92v20.51h1.92v1.91h1.64V371l10.39.82v-4.65h1.91v-1.91l7.38-.82v-2.74l7.66-1.09v-2.74h1.91V357h2.74l5.47.82,3.83-.82v1.64h1.91v3h3.83v1.92l3.55.82v1.91h1.92v2.73h3.82v2.74h3.83v12.3h0v7.39l-3.83,1.09v24.34l3.83.82v1.91h1.64V476h-1.64v3.55h-1.91v3.83h-1.92v1.92h-1.91v1.91l-3.83.82v3.83h-1.64v1.91h-5.74v.82h-.82v-.82h-3v1.64h-4.65v-2.73H-334v-.82h-1.64v-9.57h-1.91v-2.74h-5.74V476.8h-1.92v-5.74l-10.11-.82V473h-1.92v6.56l-5.74,1.1v8.2h-.82v1.91h.82v3.83l5.74.82v5.74h1.92v4.65h-1.92v2.74h1.92v3.83h-1.92v2.73h1.92v3h-1.92v6.56h1.92v4.65h-1.92v3.55h1.92v3h-1.1v1.92h1.1V549h-1.92v2.73h-1.91v3.83H-361v1.64h-1.91v1.91l-3.55,1.1V561h-3.83v1.09h-1.1V560.2H-375v1.91h-1.92L-378.8,561l-1.91,1.09-1.92-1.09-9.29,1.09v-6.56h-1.92v-3.83h1.92v-12.3h-1.92v-2.74h1.92v-5.47h-1.92V508.52h1.92v-2.74H-390V481.45h-1.91V476.8h-1.92v-4.65L-404,470.24v13.94h-1.91V488h-3.83v2.73l-5.74,1.92v2.73l-3.55,1.1v2.73h-2.74v-1.91h-3v1.91h-1.91v1.09h-.82V498.4h-5.74v-3h-1.64V452.46h-1.1v-1.09h1.1v-4.65h-1.92v-1.64h1.92v-52.5h-1.92v-3h-1.91v-1.64h-1.92V386l-10.39-1.1V386l-2.73.82-1.92-.82-1.91.82-1.64-.82-1.91.82L-463,386v-1.1h-1.91l-8.48,1.92v3.83h-1.91v4.64h-.82v-.82h-2.74v1.64h-1.91v13.13h.82v1.09h-.82v17.78h0v4.65h1.91v8.47h-1.91V444h1.91v6.56h-1.91v3.83h1.91v59.06h7.39v2.73h1.91V559.1h-1.91v3l-4.65.82V559.1h-2.74v3Zm-28.17-214.38-3.55-1.09v-1.92h-3.83l-13.12,1.92v-3.83h-1.92v-2.74h1.92v-2.73h-1.92v-3.83h1.92V327l8.47-1.92,1.92,1.09v1.65l22.42,1.09,5.47-1.09,3.83,1.09,10.39-1.91V325l5.46-.82v-1.91l5.75-1.1v-4.65h1.91v-1.91h1.92v-.82l8.2-.82v2.73l7.65.82v1.1h1.92v10.12h1.64v4.92h0v4.65h1.09v.82h-1.09v4.64H-451v2.74h-1.91v1.91h-5.47v1.1H-463l-3.83-1.1-3.82,1.1v-1.1h-1.64l-5.75,1.1-2.73-1.1v1.92h-3l-5.47-.82-3.83.82v-1.92H-495l-6.56,1.1v.82h-.82v-1.92h-2.74v1.92h-3v-.82h-1.64l-5.74.82-2.73-.82v1.91Zm69.46,163.79v-1.91h-7.66l-5.47,1.09v-1.91l-3.83-1.1V473h0V438.52h-.82v-1.1h.82v-4.64h-1.91V430h1.91V415.82h-1.91v-1.91h-1.91v-1.64h-1.64v-3.83h0V402.7h-1.92V400h1.92v-1.91l3.55-.82v-1.92h1.91V393.4h12.31l1.64,1.09v2.74l5.74.82v4.65h1.92v18.86h.82v.82h-.82V430h-1.92v3.56H-448v1.91l2.74,1.09v17.78h0v2.73h0v7.38h0v5.75h1.91v6.56h-1.91v19.69h1.91V505h-1.91v6.57l-3.83.82v1.91Zm58-56.33v-3.55H-390v-15h-1.91v-1.92h-1.92V401.88h-.82v-.82h.82V383h-1.91v-3.55h-1.64l-16.14,1.91v15.86h1.92v13.12h3.83v1.92h1.91V430h-1.91V432l-3.83.82v18.59h1.91v3h1.92v2.73l13.12,1.92Zm50.58-45.66V388.75h0V383h-1.91v-1.64l-7.39-1.09v-1.92h-3.82v-.82h-2.74v1.92h-9.29v1.91h-1.92v32.54H-346Zm0,46.76V435.51h-1.91V432l-5.47-1.1V430h-5.74l-1.92.82-1.91-.82-8.2,2.74v3.82h1.64v14.77l3.82,1.09v1.92h1.92v1.91h1.91v3.56h1.92l5.47-.82,3.82.82Z" transform="translate(559.31 -305.59)"/><path class="a" d="M-258.34,561v-3h-.83v-.82h.83v-17h1.91V530.12l5.74-1.91v-5.75h1.92v-1.91l3.55-.82V506.6l3.83-.82v-1.91h1.91V490.74h1.92V470h5.47v-2.73h1.91v-1.92h1.91v-73h-1.09v-.82h1.09V372.62h-1.91v-3.56h1.91v-4.92h-1.91v-26h1.91v-4.93h.82v1.92l13.13,1.91v1.1h3.83v2.73h9.29l2.74-1.09v-1.64l18-1.92,2.74.82v-2.73h.82v1.91h3v-1.09h.82v1.09h6.56v-1.91h1.91v-1.92h7.39v-1.91h2.73v1.91h3v-1.91h1.91V328.6h9.71a19.62,19.62,0,0,0,8.89-1.92V324l6.56-.82,1.91.82V325h2.74v-1.91h1.91v-1.92h1.92v-1.09h2.73l4.65,1.09V319.3h3l2.73.82v-.82h.82v.82l5.74,1.09v1.92h1.92V325h1.64v3.56h5.74v1.91H-85v1.91h1.92v5.75h1.91v1.64h3.56v3.82h1.91v6.57h0V354h1.92v1.91h-1.92v5.47H-77.6v1.91h-2.74l-1.91-.82v-1.91h-1.92v-1.92h-3.55l-5.74.82-3.83-1.91v-1.64L-129,354.85l-33.63,1.91-5.74-.82-7.39.82-3.82-.82-5.75.82-1.64-.82-12.3,1.64v1.91h-3.83v5.75h-1.64V368l-3.83,1.09v5.47l5.47,1.1v10.11l4.65,1.1v-1.92h1.91V383h13.13v-.82h1.09V383h4.65v-2.73h2.73l1.92.82V383h1.91v1.91h1.92l2.73-1.09v-1.64h11.21v-1.91h.82V383h1.92l5.74-.82,7.38,1.64L-129,383v-.82h11.21v-1.91h4.65v1.91h4.65v-1.91h1.91v-5.75h3.83v-1.91l8.48-.82v1.91h1.64v1.92h3v-1.92h2.73v1.92h3.83v2.73l7.38,1.92V383h1.92v3.83h1.91v1.64h1.91v20.78l-3.82.82v6.56h1.91v1.92h-1.91v20.5h.82v1.1h-.82v19.69h.82v.82h-.82v10.39l-3.83.82v4.65h-2.74l-5.74-.82-4.65,1.91v1.91l-10.11.82-3.83-.82v-1.91l-3.83-1.09v-12L-129,463.4l-13.94,1.09V473l-6.57.82-9.57-.82v-1.91l-7.38-1.92v-2.73a61.68,61.68,0,0,1-10.39-2.87A62.3,62.3,0,0,0-187,460.67l-3.83,1.09-3.82-1.09-12,1.09v22.42h-1.91v5.47h-5.74v3.83h-1.92v4.65h1.92v2.73h-1.92v10.39h-1.64v7.66h-1.91v2.73h0v2.74h-1.91v2.73h-1.92v4.65h-1.91v1.91h-1.92v3h-1.91v5.47h-7.38v9.3h-1.92v4.92l-7.38.82v1.91h-1.91V561Zm61.79-108.83v-1.64h3l6.56.82v-.82l2.74-1.09,16.68,1.91,3-.82v-1.09h.82v1.09h3.83l5.47-1.09,18.05,1.91v-.82l2.73-1.09,1.92,1.09,7.38-1.92,6.56,1.92v-1.92h1.92v-1.91h5.46V444h1.1v-1.92h-1.1v-12.3h1.92v-4.65h-1.92V407.35L-129,405.43l-11.21,1.1-3.83-1.92V400L-158,398.05V400h-1.92v3.56h-1.91v3l-10.39.82-5.47-.82v-1.92h-1.91v-3.83h-1.92v-1.91h-15l-4.65,1.91v2.74h-1.91v15.86h-3.56v1.91h-1.91V441h1.91v3.83h5.47v5.74h1.92v1.64Z" transform="translate(559.31 -305.59)"/><path class="a" d="M30.47,429.06l4-4a1.63,1.63,0,0,1,1.18-.47H55.55q7,0,17.58-4.92-.7-1.41-1.41-2.58-5.62-9.62-9.61-13.36-4.22-4.46-4.22-12.89a2.54,2.54,0,0,1,.24-1.17l4-4a1.59,1.59,0,0,1,1.17-.47q12,0,18.28,2.11a24.66,24.66,0,0,1,10.32,6.33,14.23,14.23,0,0,1,4.45,10.78,36.84,36.84,0,0,0,1.17,8.21A39.67,39.67,0,0,0,107.81,411a49.15,49.15,0,0,1,14.3-1.87h13.83a15,15,0,0,1,10.9,4.22q4.33,4.22,4.33,8.9,0,5.16-8.9,7.5A81.74,81.74,0,0,1,124,431.64a172.23,172.23,0,0,0-20.15,1.41q2.58,7.72,5.86,16.4l1.17,2.58a55,55,0,0,0,20.62-3.75q9.86-3.75,15.71-5.86a20.17,20.17,0,0,1,12.89,0,24.63,24.63,0,0,1,10.31,6.33c3.13,3.13,3.9,6.33,2.34,9.61q-2.34,4.69-12.89,6.56a130,130,0,0,1-23.9,1.88,102.68,102.68,0,0,0-20.16,2.34,61,61,0,0,1,1.88,9.84,78.09,78.09,0,0,0,7.73,25.08q6.09,12,6.09,20.39a24.57,24.57,0,0,1-1,7.5,13.14,13.14,0,0,1-3.16,5.39q-4.69,4.45-11.49,2.35-6.56-2.36-10.78-10.78A68.38,68.38,0,0,1,99.14,509q-1.87-12-5.86-29.53l-.94-3.51L71.48,482.5q-11.72,4-19.68,6.09-8.44,2.12-15-2.34a30.71,30.71,0,0,1-10.32-12.19,1.3,1.3,0,0,1,.24-1.64l3.75-4.22q4.92-4.68,9.84-2.11,3.75,1.65,11,1.64,7.72,0,27.19-7.5,4.44-1.87,8.9-3.28-1.87-6.33-4-12.65-1.18-3.29-2.11-6.57c-2,.47-4,1-5.86,1.64q-11.73,4-17.58,6.1A19.7,19.7,0,0,1,45,445.35q-6.33-2.22-14.53-14.18A1.75,1.75,0,0,1,30.47,429.06Z" transform="translate(559.31 -305.59)"/><path class="a" d="M341.37,486q3,10.56,5.86,15,3.52,5.16,5.39,14.07,1.63,8.67-.23,14.29a11.3,11.3,0,0,1-7.74,7.5q-6.09,1.88-11.71-5.62-5.4-7-5.4-19.22a89.35,89.35,0,0,0-3-23q-2.58-9.13-7-22.5-4.92,1.65-9.38,3.28-11.71,5.16-18.28,8.44-7,3.51-12.42,3.52a19.1,19.1,0,0,1-10.78-3.64,25.48,25.48,0,0,1-8.67-10.43,1.29,1.29,0,0,1,.23-1.64l3.05-3.51a1.59,1.59,0,0,1,1.17-.47,140,140,0,0,0,38.2-5.16q6.33-1.41,12-3-5.15-13.37-8.9-15.94a19.79,19.79,0,0,0-11-3.05c-1.09,0-1.64-.47-1.64-1.41V427a1.49,1.49,0,0,1,.94-1.4q17.58-7,24.84-3.29a41.77,41.77,0,0,1,10.08,6.8q3.75,3.75,3.75,11.25a54.35,54.35,0,0,0,.7,7.5l2.58-.7q15-4.92,26.72-8.44,12-3.29,17.11-3.28c3.59,0,7.74,1.17,12.42,3.52q7.5,4,5.86,11.71-1.87,7.28-10.78,12.66a68,68,0,0,0-13.12,9.84,25.58,25.58,0,0,1-12.43,7,33.13,33.13,0,0,0-11,4.45Q343.95,487.66,341.37,486Zm-2.11-7a7.86,7.86,0,0,1,2.11-3.28l18.52-18.28a7,7,0,0,1,.94-1.17,33.58,33.58,0,0,0-4.69.47q-9.37,1.63-21.56,4.69Q336.68,470.79,339.26,479Z" transform="translate(559.31 -305.59)"/><path class="a" d="M496.88,499.37l4-3.75a1.31,1.31,0,0,1,1.64-.23A70.23,70.23,0,0,0,518,501q7.26,1.89,24.37-9.6,17.58-11.73,37.27-25.32a179,179,0,0,0,33-29.29q14.05-15.94,41.71-31.88a1.69,1.69,0,0,1,1.88.24l4,4a2.12,2.12,0,0,1,0,2.34q-19.68,19.45-31.4,35.16-12,15.94-31.64,31.64T563.68,505.7q-13.83,12-25.78,18.05-12,5.87-18.52,5.86t-12.89-6.1q-6.09-6.32-10.07-22.5A1.64,1.64,0,0,1,496.88,499.37Zm4-82.5,4-3.75a1.41,1.41,0,0,1,.94-.23q20.16,0,28.36,6.09a19.89,19.89,0,0,1,8.67,16.88q0,11-7,13.36a20.3,20.3,0,0,1-12.89,0q-6.57-2.34-8.91-11-1.87-7.5-13.36-19A1.6,1.6,0,0,1,500.87,416.87Z" transform="translate(559.31 -305.59)"/><path class="a" d="M779.9,430.23l8-4a1.57,1.57,0,0,1,1.17,0A68,68,0,0,1,809,436.33q8.43,6.33,8.44,12.89,0,6.33-6.1,14.65T789,476.17A137,137,0,0,0,761.62,486q-12,5.87-47.58,9.85a1.53,1.53,0,0,1-1.41-.24l-4-4h.23c-1.25-.94-1.17-1.79.24-2.58q23.67-11.71,39.61-17.81,15.46-5.85,25.07-13.59,9.15-7.28,5.39-25.79A1.35,1.35,0,0,1,779.9,430.23Zm58.36-3.75,4-4a1.59,1.59,0,0,1,1.41-.24q24.14,4,38.2,13.83,14.29,10.32,14.3,20.86t-6.33,16.88q-7,7-17.81-1.64-10.08-8.2-16.18-22.27a44.55,44.55,0,0,0-17.34-21.09C837.55,428.2,837.47,427.42,838.26,426.48Zm23.2-34.22q0-21.09,21.33-21.09t21.33,21.09q0,21.11-21.33,21.1T861.46,392.26ZM882.79,382q-10.08,0-10.08,10.31t10.08,10.32q10.55,0,10.54-10.32T882.79,382Z" transform="translate(559.31 -305.59)"/><path class="a" d="M975.49,425.78l4-8,.24-.23q4.44-4.69,15-2.58,9.6,1.88,25.08,0t25.31-5.86q9.36-3.75,13.12-7.5,4.46-4.22,8.91-4.22t10.78,4.22a20.34,20.34,0,0,1,8.44,10.55q2.1,6.56-2.11,13.12-4,5.87-9.85,13.83a175.52,175.52,0,0,0-10.31,14.77q8.45,7.72,17.35,10.31,14.05,4,20.15,8a33,33,0,0,1,10.31,12.42q4.23,8.2,2.11,15a14,14,0,0,1-8.9,8.9q-6.81,2.12-15.24-6.32l-17.81-17.82q-7.26-7.26-23.44-11.48c-1.25,1.25-2.57,2.5-4,3.75q-11.73,9.84-27.42,21.8-15.94,12-59.53,23.67a2,2,0,0,1-1.65-.24l-4-4h.23q-1.87-1.64.24-2.58,27.65-11.71,43.24-21.44a145.63,145.63,0,0,0,27.07-21.45A203.14,203.14,0,0,0,1040.41,453a41.25,41.25,0,0,0,7.5-16.88q1.88-9.13.47-10.54T1036,426a70.47,70.47,0,0,0-19.22,5.63,130.1,130.1,0,0,1-13.83,6.09,20.17,20.17,0,0,1-12.89,0q-6.33-2.1-14.3-10.07A1.67,1.67,0,0,1,975.49,425.78Z" transform="translate(559.31 -305.59)"/><path class="a" d="M1393.43,346.92a3.8,3.8,0,0,1,1.51-1.64,13.45,13.45,0,0,1,5.46,0,5.34,5.34,0,0,1,1.78,1.64,10.62,10.62,0,0,0,3,3.28c1.09.73,1.64,2.09,1.64,4.1a6.52,6.52,0,0,0,.55,3.28,14.55,14.55,0,0,0,3.28,2.73,3.28,3.28,0,0,1,1,1.51,22.4,22.4,0,0,1-.14,4c-.19,4.56.73,7.39,2.73,8.48a5.09,5.09,0,0,1,2,1.5c.28.46.32,3.15.14,8.07-.18,4-.14,6.56.14,7.66a3.64,3.64,0,0,0,2.32,2.46c1.27.36,2,.77,2.19,1.23a31.11,31.11,0,0,1,.27,5.88q-.27,4.37.14,5.33t3.42,3.14a2.9,2.9,0,0,1,1.23,1.64,48.85,48.85,0,0,1,.13,4.93q-.27,5.46.82,6.42a3.1,3.1,0,0,0,1.78,1,2.22,2.22,0,0,1,1.51,1q.81,1,.54,8.61c-.18,5.1.09,8.07.82,8.89a2.93,2.93,0,0,0,1.92,1.23c.54,0,1,.36,1.5,1.09s.59,2.83.41,6.29l-.27,5.19,1.36.82c.91.73,1.83,1.51,2.74,2.33a4.07,4.07,0,0,1,1.09,3.69,5.05,5.05,0,0,0,.82,3.83c.73.91,1.32,1.37,1.78,1.37a2.2,2.2,0,0,1,1.5,1q.82,1,.82,10.8-.27,8.21.14,10a4.41,4.41,0,0,0,2.87,2.87c2,.74,2.64,2.56,1.92,5.47q-1.92,6.84,2.46,9c1.27.73,1.91,1.23,1.91,1.5s.91,1.37,2.74,3.28,3.09,3.33,3.82,4.24l1.1,1.37h20.51l1.64,1.91a7.9,7.9,0,0,0,2.73,2.6,2.42,2.42,0,0,1,1.5,1.91c.09.82-.41,1.6-1.5,2.33a11.78,11.78,0,0,0-2.87,2.73,4.87,4.87,0,0,1-2.19,1.92c-.64.18-1.41,1-2.32,2.46q-2.46,4.36-4.38.54a5.18,5.18,0,0,0-3.28-2.87q-1.92-.4-16.13-.41-17,0-35-.27l-18-.27-1.09-1.64a5.3,5.3,0,0,0-2.6-2.47,2.43,2.43,0,0,1-.14-4.64,8.36,8.36,0,0,0,3-2.74l1.37-1.64h7.93q7.65,0,9-1.09t1.37-6q.27-7.65-2.74-8.75c-1.27-.55-2-1.18-2.18-1.91s-.19-3.56,0-8.48v-7.11l-1.37-1.09a15.45,15.45,0,0,0-2.32-1.92c-.82-.54-1.19-1.73-1.1-3.55a5.54,5.54,0,0,0-1.5-4.38,54.49,54.49,0,0,1-4.65-4.64c-.91-1.1-2.32-1.55-4.24-1.37a7,7,0,0,0-4.78,2.46l-2.19,2.19h-20.51l-2.46,2.73q-2.46,2.46-3.83,3.56a3.7,3.7,0,0,0-1.09,3.55q.54,3.84-2.46,4.92a3.1,3.1,0,0,0-2,2.6,82.68,82.68,0,0,0-.69,10q0,9.84.28,10.94c.18.73.91,1.41,2.18,2.05s2,1.23,2.19,1.78a5.42,5.42,0,0,0,1.37,1.91q1.1,1.09,6.83,1.37t6.29,1.09q.56.83.55,5.61t-.82,5.88l-.82,1.09-29.53-.27q-29.81-.55-30.63-1.23c-.54-.46-.82-2.42-.82-5.88s.32-5.47,1-6,3.42-.73,8.34-.55l7.66.28,1.09-1.37a19.52,19.52,0,0,1,2.73-2.73,56.48,56.48,0,0,1,4.65-4.65,10.7,10.7,0,0,1,2.74-2.46,2.9,2.9,0,0,0,1.23-1.64,40.2,40.2,0,0,0,.13-4.38,26,26,0,0,1,0-5.6c.18-.64.91-1.33,2.19-2.06,1.64-.72,2.55-1.68,2.74-2.87a74.38,74.38,0,0,0,0-9.43q-.29-9.57.82-10.8c.72-.82,1.32-1.23,1.77-1.23s1-.45,1.64-1.37.87-3,.69-6.29v-4.92l1.37-1.37c1.09-.91,2-1.68,2.73-2.32s1.09-3.51,1.09-8.61q0-6.57.41-7.8c.28-.82,1.14-1.5,2.6-2.05a2.86,2.86,0,0,0,1.78-1.78q.4-1.23.14-7.51c-.19-4-.14-6.52.13-7.52a3.71,3.71,0,0,1,2-2.33q3.55-1.64,2.87-5.19t2.05-4.65a3.72,3.72,0,0,0,2.6-2.46,39.28,39.28,0,0,0,.41-7.39q-.27-7.1.14-8.06a4.08,4.08,0,0,1,2-1.78,3.67,3.67,0,0,0,2.32-2.32,41.3,41.3,0,0,0,.41-7.8q0-7.92,1.1-8.75a3.33,3.33,0,0,1,1.78-.82q.68,0,1.5-1.23t.82-5.88c-.18-2.91-.14-4.74.14-5.47a3.94,3.94,0,0,1,1.77-1.91A8.42,8.42,0,0,0,1393.43,346.92Zm-1.37,51.95q-2.19-2.19-3.82-.27a70.73,70.73,0,0,1-5.2,5.19q-1.1,1.09-1.09,11.35c0,6.83-.32,10.53-1,11.07a2.79,2.79,0,0,1-1.37.82c-.27,0-.82.41-1.64,1.23s-1.23,3.83-1.23,9-.32,8-1,8.47a3,3,0,0,1-1.5.69q-.82,0-1.5,1.23a4.79,4.79,0,0,0-.69,2.32,3.23,3.23,0,0,0,1.92,2.46,7.24,7.24,0,0,1,2.6,1.78,6.21,6.21,0,0,1,.13,3.14c-.18,2.19.09,3.56.82,4.11q2.46,2.46,4.38-.28c1.45-2.18,3.09-3.37,4.92-3.55a4.1,4.1,0,0,1,2.73.27,19.67,19.67,0,0,1,3,3.28q1.1,1.65,4.24,1.23a8.1,8.1,0,0,0,5.06-2.46c1.27-1.36,2.14-2.05,2.6-2.05s1-.41,1.77-1.23,1.1-3.05,1.1-6.7a26.9,26.9,0,0,0-.41-6,3.84,3.84,0,0,0-2.6-2.19l-1.64-.82v-5.74q0-4.92-.41-5.88t-3.42-3.15l-1.37-.82.28-7.38q.27-7.38-.28-8.48a3.49,3.49,0,0,0-1.91-1.64q-3-1.36-2.46-5.19C1393.34,400.88,1393,399.6,1392.06,398.87Z" transform="translate(559.31 -305.59)"/><path class="a" d="M1689.16,389.69l3.75-4a1.55,1.55,0,0,1,1.88-.47q16.64,8.44,18.51,16.88,2.12,8.67-2.11,13.36-4.21,4-22.26,7.73,1.39,2.35,2.57,4,2.12,3,2.11,10.54a36.62,36.62,0,0,1,4.69.71,61,61,0,0,0,21.33,0q9.84-2.12,13.83-2.11,4.68,0,9.14,4.33c3,2.9,4.45,5.9,4.45,9q0,4.92-4.92,7.26-4.45,2.35-24.61,0a196.59,196.59,0,0,0-25.08-.7l-.7,3.51q-4,25.78-13.83,43.72t-37.73,41.83a1.43,1.43,0,0,1-2.11,0l-4-4a1.43,1.43,0,0,1,0-2.11q19.45-23.43,25.31-38.91a64.32,64.32,0,0,0,4-30.94q-.7-5.14-.94-10.07-6.09.93-11.25,1.64a121.76,121.76,0,0,0-25.31,8q-14.54,5.85-21.09,1.64a33.57,33.57,0,0,1-10.32-12.19,1.69,1.69,0,0,1,.24-1.88l4-4a1.59,1.59,0,0,1,1.41-.24q27.42,3.76,46.64-1.87,9.13-2.82,16.17-5.16c.15-1.25.31-2.42.47-3.51a124.35,124.35,0,0,0,1.64-13.36q-7.27,1.63-13.83,3.05-15.7,4-43.36,4a2.68,2.68,0,0,1-1.17-.23l-4-4c-1.41-1.41-1.1-2.26.93-2.58a290.94,290.94,0,0,0,41-11.83q21.55-7.86,33.28-13.71,11-5.4,11-12.43A1.32,1.32,0,0,1,1689.16,389.69Z" transform="translate(559.31 -305.59)"/><path class="a" d="M1902.09,466.8q-42.64,0-48,3.51-7.27,4.92-12.19-.23-4.21-4.23-8.2-24.85a1.32,1.32,0,0,1,.47-1.4l4-4a1.33,1.33,0,0,1,2.34,0q11,11.25,18,9.38,8-2.12,49.69-2.11,41.47,0,54.14-.7,13.59-1.19,16.17,1.4t1.41,10.55q-.95,8.2-9.14,9.37-7.27,1.18-24.14,0Q1930,466.8,1902.09,466.8Z" transform="translate(559.31 -305.59)"/><path class="a" d="M2105,409.37l4-4a1.59,1.59,0,0,1,1.17-.47q23.89,0,30.11,4.34a22.42,22.42,0,0,1,8.56,10.66q2.11,6.57-2.34,13.13a99.52,99.52,0,0,1-11.72,14.06,92.56,92.56,0,0,0-13.6,17.34q-5.85,9.62-7.73,13.6c-1.1,2.19-1.64,5.31-1.64,9.37q17.34-.23,57.19-9.14a101.53,101.53,0,0,0-5.4-12.19,1.53,1.53,0,0,1,.47-1.87l4-3.75a1.41,1.41,0,0,1,1.4-.24q23.91,7.74,32.11,15.94,8.44,8.2,8.44,16.88a20.17,20.17,0,0,1-6.56,15q-6.57,6.55-17.35,2.11-10.77-4.23-12.65-16.88a22.58,22.58,0,0,1-.7-3.28q-33.75,9.62-50.4,16.17-19.68,8-31.64,10.08-12.42,2.12-18.51,0a21.94,21.94,0,0,1-10.55-8.44q-4.7-6.8,0-13.59a14.48,14.48,0,0,1,12.89-6.8,38.1,38.1,0,0,0,12.89-1.87q4.7-1.65,6.8-8.68,2.58-8,10.55-23.67,7.72-15.46,7.73-24.84,0-9.15-7.5-16.64A1.72,1.72,0,0,1,2105,409.37Z" transform="translate(559.31 -305.59)"/></svg>